# xmcd CD database file
#
# Track frame offsets:
#	150
#	40421
#	83986
#	149598
#	171101
#	209503
#	244904
#	280596
#
# Disc length: 4176 seconds
#
# Revision: 0
# Processed by: cddbd v1.5.2PL0 Copyright (c) Steve Scherf et al.
# Submitted via: CDex 2.19
#
DISCID=76104e08
DTITLE=Ottla - Ottla
DYEAR=2019
DGENRE=Jazz
TTITLE0=Huisje Tuintje
TTITLE1=Spinrag
TTITLE2=Stofwolk
TTITLE3=Epistrophy
TTITLE4=Je Ne Sens Presque Plus Rien
TTITLE5=Lights on a Satellite
TTITLE6=Etrange Poursuite
TTITLE7=Vroeger Beter
EXTD=YEAR: 2019
EXTT0=
EXTT1=
EXTT2=
EXTT3=
EXTT4=
EXTT5=
EXTT6=
EXTT7=
PLAYORDER=
